<?xml version="1.0" encoding="UTF-8"?>
<svg width="28px" height="28px" viewBox="0 0 28 28" version="1.1" xmlns="http://www.w3.org/2000/svg" xmlns:xlink="http://www.w3.org/1999/xlink">
    <!-- Generator: Sketch 52.5 (67469) - http://www.bohemiancoding.com/sketch -->
    <title>facebook</title>
    <desc>Created with Sketch.</desc>
    <defs>
        <polygon id="path-1" points="0.0001 0 28 0 28 27.9994 0.0001 27.9994"></polygon>
    </defs>
    <g id="facebook" stroke="none" stroke-width="1" fill="none" fill-rule="evenodd" opacity="0.8">
        <g id="Group-3">
            <mask id="mask-2" fill="white">
                <use xlink:href="#path-1"></use>
            </mask>
            <g id="Clip-2"></g>
            <path d="M18.3251,13.8844 L15.6631,13.8844 L15.6631,23.7024 L11.6291,23.7024 L11.6291,13.9484 L9.4341,13.9484 L9.4341,10.5614 L11.5631,10.5614 C11.5631,9.5594 11.5721,8.6684 11.5631,7.7384 C11.5631,5.0714 13.6101,4.2974 15.4511,4.2974 L18.5531,4.2974 L18.5541,4.2974 L18.5541,7.6444 C18.2931,7.6464 17.2781,7.6444 16.7561,7.6444 C16.6901,7.6444 15.5941,7.5834 15.5941,8.6384 C15.5991,9.0694 15.5941,10.5514 15.5941,10.5514 L18.5651,10.5514 L18.3251,13.8844 Z M14.0001,-0.0006 C6.2681,-0.0006 0.0001,6.2684 0.0001,13.9994 C0.0001,21.7324 6.2681,27.9994 14.0001,27.9994 C21.7321,27.9994 28.0001,21.7324 28.0001,13.9994 C28.0001,6.2684 21.7321,-0.0006 14.0001,-0.0006 Z" id="Fill-1" fill="#FFFFFF" mask="url(#mask-2)"></path>
        </g>
    </g>
</svg>